<svg width="25" height="24" viewBox="0 0 25 24" fill="none" xmlns="http://www.w3.org/2000/svg">
<g clip-path="url(#clip0_12_88)">
<path d="M8.42561 14.0627H8.42674C8.42768 14.0627 8.42861 14.0625 8.42951 14.0625H21.1775C21.3303 14.0625 21.4789 14.0127 21.6009 13.9207C21.7228 13.8287 21.8115 13.6994 21.8535 13.5525L24.666 3.7088C24.6959 3.60417 24.7011 3.49404 24.6812 3.38707C24.6613 3.28009 24.6169 3.17919 24.5514 3.0923C24.4859 3.0054 24.401 2.9349 24.3036 2.88635C24.2062 2.8378 24.0988 2.81252 23.99 2.8125H6.80407L6.30147 0.550594C6.26674 0.39442 6.1798 0.254756 6.05499 0.154656C5.93019 0.0545557 5.77498 2.16079e-06 5.61499 0L1.39624 0C1.00788 0 0.693115 0.314766 0.693115 0.703125C0.693115 1.09148 1.00788 1.40625 1.39624 1.40625H5.05104C5.14001 1.80703 7.45629 12.2305 7.5896 12.8302C6.84236 13.155 6.31811 13.9001 6.31811 14.7656C6.31811 15.9287 7.26443 16.875 8.42749 16.875H21.1775C21.5658 16.875 21.8806 16.5602 21.8806 16.1719C21.8806 15.7835 21.5658 15.4688 21.1775 15.4688H8.42749C8.03983 15.4688 7.72436 15.1533 7.72436 14.7656C7.72436 14.3785 8.03876 14.0636 8.42561 14.0627ZM23.0578 4.21875L20.6471 12.6562H8.99149L7.11649 4.21875H23.0578ZM7.72436 18.9844C7.72436 20.1475 8.67068 21.0938 9.83374 21.0938C10.9968 21.0938 11.9431 20.1474 11.9431 18.9844C11.9431 17.8213 10.9968 16.875 9.83374 16.875C8.67068 16.875 7.72436 17.8213 7.72436 18.9844ZM9.83374 18.2812C10.2214 18.2812 10.5369 18.5967 10.5369 18.9844C10.5369 19.372 10.2214 19.6875 9.83374 19.6875C9.44608 19.6875 9.13061 19.372 9.13061 18.9844C9.13061 18.5967 9.44608 18.2812 9.83374 18.2812ZM17.6619 18.9844C17.6619 20.1475 18.6082 21.0938 19.7712 21.0938C20.9343 21.0938 21.8806 20.1474 21.8806 18.9844C21.8806 17.8213 20.9343 16.875 19.7712 16.875C18.6082 16.875 17.6619 17.8213 17.6619 18.9844ZM19.7712 18.2812C20.1589 18.2812 20.4744 18.5967 20.4744 18.9844C20.4744 19.372 20.1589 19.6875 19.7712 19.6875C19.3836 19.6875 19.0681 19.372 19.0681 18.9844C19.0681 18.5967 19.3836 18.2812 19.7712 18.2812Z" fill="white"/>
</g>
<defs>
<clipPath id="clip0_12_88">
<rect width="24" height="24" fill="white" transform="translate(0.693115)"/>
</clipPath>
</defs>
</svg>
