<svg width="17" height="18" viewBox="0 0 17 18" fill="none" xmlns="http://www.w3.org/2000/svg">
<g opacity="0.6" clip-path="url(#clip0_127_174)">
<path d="M14.8086 1.6377H13.2812V0.84082C13.2812 0.547437 13.0434 0.30957 12.75 0.30957C12.4566 0.30957 12.2188 0.547437 12.2188 0.84082V1.6377H4.78125V0.84082C4.78125 0.547437 4.54342 0.30957 4.25 0.30957C3.95658 0.30957 3.71875 0.547437 3.71875 0.84082V1.6377H2.19141C0.983045 1.6377 0 2.62074 0 3.8291V15.1182C0 16.3265 0.983045 17.3096 2.19141 17.3096H14.8086C16.017 17.3096 17 16.3265 17 15.1182V3.8291C17 2.62074 16.017 1.6377 14.8086 1.6377ZM2.19141 2.7002H3.71875V3.23145C3.71875 3.52483 3.95658 3.7627 4.25 3.7627C4.54342 3.7627 4.78125 3.52483 4.78125 3.23145V2.7002H12.2188V3.23145C12.2188 3.52483 12.4566 3.7627 12.75 3.7627C13.0434 3.7627 13.2812 3.52483 13.2812 3.23145V2.7002H14.8086C15.4311 2.7002 15.9375 3.20661 15.9375 3.8291V5.09082H1.0625V3.8291C1.0625 3.20661 1.56891 2.7002 2.19141 2.7002ZM14.8086 16.2471H2.19141C1.56891 16.2471 1.0625 15.7407 1.0625 15.1182V6.15332H15.9375V15.1182C15.9375 15.7407 15.4311 16.2471 14.8086 16.2471Z" fill="white"/>
</g>
<defs>
<clipPath id="clip0_127_174">
<rect width="17" height="17" fill="white" transform="translate(0 0.30957)"/>
</clipPath>
</defs>
</svg>
