<svg width="40" height="41" viewBox="0 0 40 41" fill="none" xmlns="http://www.w3.org/2000/svg">
<path d="M36.7009 15.5048L35.2841 13.5414C34.4836 12.4352 33.4325 11.5344 32.2169 10.9126C31.0013 10.2907 29.6557 9.96564 28.2903 9.96387H11.7097C10.3442 9.96567 8.9985 10.2908 7.78283 10.9128C6.56717 11.5347 5.51608 12.4357 4.71562 13.542L3.29969 15.5045C2.47532 16.0721 1.80118 16.8315 1.33527 17.7173C0.869351 18.6032 0.625607 19.5889 0.625 20.5898V25.2136C0.627068 26.9605 1.32198 28.6353 2.55729 29.8706C3.79259 31.1058 5.46743 31.8006 7.21438 31.8026H9.12781C10.8813 31.8056 12.6077 31.3703 14.1502 30.5364C15.6928 29.7025 17.0024 28.4964 17.9603 27.0276L18.5156 26.1789C18.6792 25.9414 18.8995 25.7486 19.1566 25.618C19.4136 25.4874 19.6993 25.4231 19.9875 25.4311C19.9958 25.4315 20.0042 25.4315 20.0125 25.4311C20.3006 25.4241 20.5859 25.4888 20.8428 25.6193C21.0997 25.7498 21.3201 25.9421 21.4844 26.1789L22.0397 27.0276C22.9976 28.4964 24.3072 29.7025 25.8498 30.5364C27.3923 31.3703 29.1187 31.8056 30.8722 31.8026H32.7856C34.5326 31.8006 36.2074 31.1058 37.4427 29.8706C38.678 28.6353 39.3729 26.9605 39.375 25.2136V20.5898C39.3744 19.589 39.1307 18.6034 38.6649 17.7176C38.1991 16.8318 37.5251 16.0725 36.7009 15.5048ZM5.72906 14.2736C6.41352 13.3275 7.3123 12.5571 8.35182 12.0253C9.39134 11.4934 10.542 11.2154 11.7097 11.2139H28.2906C29.4582 11.2154 30.6088 11.4934 31.6482 12.0251C32.6877 12.5568 33.5864 13.3271 34.2709 14.2729L34.4631 14.5392C34.0451 14.4511 33.6191 14.4066 33.1919 14.4064H6.80844C6.38146 14.4065 5.95564 14.4509 5.53781 14.5389L5.72906 14.2736ZM38.125 25.2139C38.1234 26.6295 37.5604 27.9867 36.5594 28.9876C35.5584 29.9886 34.2012 30.5517 32.7856 30.5532H30.8722C29.3264 30.5559 27.8044 30.1722 26.4445 29.437C25.0847 28.7019 23.9301 27.6387 23.0856 26.3439L22.53 25.4948C22.2563 25.0884 21.8865 24.7558 21.4533 24.5267C21.0202 24.2975 20.5372 24.1789 20.0472 24.1814L20 24.1817C19.5025 24.1738 19.0109 24.2897 18.5693 24.5189C18.1276 24.7481 17.7499 25.0835 17.47 25.4948L16.9144 26.3436C16.0699 27.6383 14.9153 28.7016 13.5555 29.4367C12.1956 30.1719 10.6736 30.5555 9.12781 30.5529H7.21438C5.79882 30.5514 4.44169 29.9884 3.44071 28.9874C2.43974 27.9865 1.87665 26.6294 1.875 25.2139V20.5898C1.87649 19.2818 2.39674 18.0279 3.32161 17.103C4.24649 16.1781 5.50047 15.6579 6.80844 15.6564H33.1916C34.4996 15.6579 35.7536 16.1781 36.6785 17.1031C37.6034 18.028 38.1236 19.2821 38.125 20.5901V25.2139Z" fill="white"/>
<path d="M29.9843 19.6905C29.8337 19.6214 29.6619 19.6149 29.5065 19.6724C29.3511 19.73 29.2249 19.8468 29.1556 19.9974L27.9618 22.5939L26.7681 19.9974C26.697 19.8498 26.5709 19.736 26.4167 19.6805C26.2626 19.6249 26.0928 19.6322 25.944 19.7006C25.7951 19.769 25.6791 19.8931 25.6208 20.0462C25.5626 20.1993 25.5667 20.3692 25.6325 20.5192L27.394 24.3511C27.444 24.4597 27.524 24.5517 27.6247 24.6162C27.7253 24.6807 27.8423 24.7149 27.9618 24.7149C28.0814 24.7149 28.1984 24.6807 28.299 24.6162C28.3997 24.5517 28.4797 24.4597 28.5296 24.3511L30.2915 20.5196C30.3607 20.3689 30.3673 20.197 30.3097 20.0415C30.2522 19.886 30.1349 19.7598 29.9843 19.6905ZM34.9403 21.3861C34.9398 20.9214 34.755 20.4759 34.4264 20.1473C34.0979 19.8187 33.6524 19.6339 33.1878 19.6333H31.8968C31.7311 19.6333 31.5721 19.6991 31.4549 19.8164C31.3377 19.9336 31.2718 20.0925 31.2718 20.2583V24.0902C31.2718 24.2559 31.3377 24.4149 31.4549 24.5321C31.5721 24.6493 31.7311 24.7152 31.8968 24.7152C32.0626 24.7152 32.2216 24.6493 32.3388 24.5321C32.456 24.4149 32.5218 24.2559 32.5218 24.0902V23.1386H32.9543L33.7906 24.4299C33.8345 24.5002 33.892 24.5611 33.9597 24.609C34.0274 24.6569 34.104 24.6908 34.185 24.7088C34.2659 24.7268 34.3496 24.7286 34.4313 24.7139C34.5129 24.6992 34.5908 24.6684 34.6604 24.6234C34.73 24.5783 34.79 24.5198 34.8367 24.4513C34.8835 24.3828 34.9162 24.3057 34.9329 24.2245C34.9496 24.1432 34.9499 24.0595 34.9339 23.9781C34.9179 23.8967 34.8859 23.8194 34.8396 23.7505L34.2237 22.7989C34.4458 22.6363 34.6264 22.4236 34.7509 22.1782C34.8754 21.9327 34.9403 21.6613 34.9403 21.3861ZM33.1878 21.8886H32.5218V20.8833H33.1875C33.3208 20.8833 33.4486 20.9363 33.5429 21.0305C33.6372 21.1248 33.6901 21.2526 33.6901 21.386C33.6901 21.5193 33.6372 21.6471 33.5429 21.7414C33.4486 21.8357 33.3211 21.8886 33.1878 21.8886Z" fill="white"/>
</svg>
