<svg width="41" height="41" viewBox="0 0 41 41" fill="none" xmlns="http://www.w3.org/2000/svg">
<path d="M5.88575 33.3495H7.06075C7.64624 33.3483 8.2236 33.2123 8.74814 32.9522C9.27269 32.6921 9.73036 32.3148 10.0857 31.8495L12.3607 29.7079C14.357 27.8234 16.9813 26.7462 19.7258 26.6846C22.4704 26.623 25.1403 27.5815 27.2191 29.3745L30.4607 32.1662C30.8101 32.539 31.2321 32.8364 31.7008 33.0399C32.1694 33.2434 32.6748 33.3488 33.1857 33.3495H34.7024C35.3382 33.3604 35.9669 33.2139 36.5325 32.9231C37.098 32.6324 37.5829 32.2063 37.9441 31.6829C38.3589 30.9152 38.5738 30.0554 38.5691 29.1829C38.5691 28.5995 38.5107 15.3245 33.4857 10.3079C32.9034 9.69204 32.2021 9.20093 31.4242 8.8643C30.6464 8.52766 29.8083 8.35253 28.9607 8.34953C28.0163 8.3228 27.076 8.48441 26.1946 8.82493C25.3133 9.16545 24.5086 9.67806 23.8274 10.3329C23.3727 10.7736 22.8352 11.1198 22.2459 11.3515C21.6566 11.5832 21.0272 11.6959 20.3941 11.6829H20.1274C19.4878 11.7035 18.8506 11.5953 18.2537 11.3649C17.6567 11.1344 17.1122 10.7863 16.6524 10.3412C15.3774 9.04953 13.5691 8.43286 11.0191 8.41619H10.9691C10.1988 8.41989 9.43714 8.57899 8.72978 8.88399C8.02242 9.18898 7.38389 9.63359 6.85241 10.1912C1.96075 15.0162 1.90241 28.6079 1.90241 29.1829C1.88722 29.7469 1.9632 30.3097 2.12741 30.8495C2.42247 31.601 2.94113 32.2437 3.61329 32.6908C4.28544 33.1379 5.07868 33.3678 5.88575 33.3495ZM8.02741 11.3745C8.4037 10.97 8.8588 10.6467 9.36469 10.4245C9.87058 10.2024 10.4166 10.0861 10.9691 10.0829C13.0691 10.0829 14.4857 10.5495 15.4274 11.5079C16.0459 12.1163 16.7812 12.5931 17.589 12.9096C18.3967 13.2261 19.2602 13.3758 20.1274 13.3495H20.3941C21.2472 13.3636 22.0947 13.2081 22.8872 12.8919C23.6797 12.5758 24.4015 12.1053 25.0107 11.5079C25.5357 11.0074 26.1559 10.6175 26.8344 10.3613C27.5129 10.1051 28.236 9.98771 28.9607 10.0162C29.5873 10.0184 30.2067 10.1498 30.7802 10.4022C31.3538 10.6545 31.8691 11.0224 32.2941 11.4829C36.8441 16.0245 36.9024 29.0495 36.9024 29.1829C36.9059 29.7302 36.7863 30.2713 36.5524 30.7662C36.3411 31.0571 36.0624 31.2925 35.7402 31.4521C35.418 31.6117 35.0619 31.6909 34.7024 31.6829H33.1857C32.8974 31.6821 32.6124 31.6217 32.3485 31.5056C32.0847 31.3894 31.8477 31.22 31.6524 31.0079L31.5774 30.9329L28.3024 28.1079C25.9109 26.0493 22.8418 24.9493 19.6872 25.02C16.5325 25.0908 13.5158 26.3274 11.2191 28.4912L8.88575 30.6912C8.84609 30.7242 8.81228 30.7636 8.78575 30.8079C8.58265 31.0711 8.32103 31.2835 8.02162 31.4282C7.72221 31.5728 7.39323 31.6457 7.06075 31.6412H5.88575C5.42041 31.6579 4.96109 31.532 4.56936 31.2803C4.17762 31.0285 3.87222 30.6631 3.69408 30.2329C3.60023 29.8911 3.55809 29.5371 3.56908 29.1829C3.56908 29.0495 3.62741 15.7412 8.02741 11.3745Z" fill="white"/>
<path d="M9.40243 17.5163H11.0691V19.1829C11.0691 19.404 11.1569 19.6159 11.3132 19.7722C11.4694 19.9285 11.6814 20.0163 11.9024 20.0163C12.1234 20.0163 12.3354 19.9285 12.4917 19.7722C12.648 19.6159 12.7358 19.404 12.7358 19.1829V17.5163H14.4024C14.6234 17.5163 14.8354 17.4285 14.9917 17.2722C15.148 17.1159 15.2358 16.904 15.2358 16.6829C15.2358 16.4619 15.148 16.25 14.9917 16.0937C14.8354 15.9374 14.6234 15.8496 14.4024 15.8496H12.7358V14.1829C12.7358 13.9619 12.648 13.75 12.4917 13.5937C12.3354 13.4374 12.1234 13.3496 11.9024 13.3496C11.6814 13.3496 11.4694 13.4374 11.3132 13.5937C11.1569 13.75 11.0691 13.9619 11.0691 14.1829V15.8496H9.40243C9.18141 15.8496 8.96945 15.9374 8.81317 16.0937C8.65689 16.25 8.56909 16.4619 8.56909 16.6829C8.56909 16.904 8.65689 17.1159 8.81317 17.2722C8.96945 17.4285 9.18141 17.5163 9.40243 17.5163Z" fill="white"/>
<path d="M28.5691 16.6829C29.4896 16.6829 30.2358 15.9368 30.2358 15.0163C30.2358 14.0958 29.4896 13.3496 28.5691 13.3496C27.6487 13.3496 26.9025 14.0958 26.9025 15.0163C26.9025 15.9368 27.6487 16.6829 28.5691 16.6829Z" fill="white"/>
<path d="M28.5691 21.6829C29.4896 21.6829 30.2358 20.9368 30.2358 20.0163C30.2358 19.0958 29.4896 18.3496 28.5691 18.3496C27.6487 18.3496 26.9025 19.0958 26.9025 20.0163C26.9025 20.9368 27.6487 21.6829 28.5691 21.6829Z" fill="white"/>
<path d="M26.0691 19.1829C26.9896 19.1829 27.7358 18.4368 27.7358 17.5163C27.7358 16.5958 26.9896 15.8496 26.0691 15.8496C25.1487 15.8496 24.4025 16.5958 24.4025 17.5163C24.4025 18.4368 25.1487 19.1829 26.0691 19.1829Z" fill="white"/>
<path d="M31.0691 19.1829C31.9896 19.1829 32.7358 18.4368 32.7358 17.5163C32.7358 16.5958 31.9896 15.8496 31.0691 15.8496C30.1487 15.8496 29.4025 16.5958 29.4025 17.5163C29.4025 18.4368 30.1487 19.1829 31.0691 19.1829Z" fill="white"/>
</svg>
