<svg width="40" height="41" viewBox="0 0 40 41" fill="none" xmlns="http://www.w3.org/2000/svg">
<g clip-path="url(#clip0_98_193)">
<path fill-rule="evenodd" clip-rule="evenodd" d="M11.6973 23.5992C10.2437 23.5992 8.97455 22.6666 8.54025 21.2782C8.51752 21.206 8.51283 21.1293 8.52619 21.0548C8.77252 19.6858 9.79955 18.5688 11.1425 18.2088C11.4489 18.1267 11.7634 18.0853 12.0777 18.0853C13.1399 18.0853 14.1437 18.5517 14.8311 19.3652C14.8801 19.4228 14.9141 19.4915 14.9307 19.5653C15.3198 21.3023 14.2768 23.0243 12.5565 23.4848C12.2753 23.5605 11.986 23.5992 11.6973 23.5992ZM9.47166 21.1073C9.81338 22.0418 10.6939 22.6612 11.6973 22.6612C11.904 22.6612 12.1114 22.6338 12.3137 22.5799C13.5097 22.2595 14.2489 21.0895 14.0385 19.8836C13.3757 19.1646 12.3425 18.8585 11.3851 19.1149C10.4289 19.3711 9.68869 20.1464 9.47166 21.1073ZM10.0799 15.6813C9.43182 15.6813 8.86205 15.2437 8.69424 14.6172C8.48939 13.8529 8.94479 13.0645 9.70932 12.8599C9.8312 12.8273 9.95612 12.8106 10.0813 12.8106C10.7293 12.8106 11.2991 13.2482 11.4669 13.8747C11.6713 14.639 11.2164 15.4274 10.4518 15.6323C10.3299 15.6649 10.2048 15.6813 10.0799 15.6813ZM10.0808 13.7479C10.0374 13.7479 9.99409 13.7538 9.95166 13.7652C9.68659 13.8363 9.52885 14.1095 9.59987 14.3746C9.66924 14.6338 9.94581 14.797 10.2092 14.7264C10.4743 14.6554 10.6321 14.3821 10.561 14.117C10.5027 13.8995 10.3053 13.7479 10.0808 13.7479ZM14.0704 30.5738C13.4223 30.5738 12.8525 30.1362 12.6845 29.5099C12.5851 29.1394 12.6362 28.7529 12.8282 28.4208C13.0199 28.0884 13.3295 27.8512 13.6996 27.7521C13.8214 27.7193 13.9464 27.7029 14.0715 27.7029C14.7193 27.7029 15.2889 28.1405 15.4569 28.7667C15.5563 29.1373 15.5052 29.524 15.3132 29.8559C15.1215 30.1882 14.8119 30.4256 14.4418 30.5245C14.32 30.5571 14.1953 30.5738 14.0704 30.5738ZM14.0715 28.6409C14.0282 28.6409 13.9848 28.6467 13.9424 28.6582C13.8139 28.6924 13.7066 28.7747 13.64 28.89C13.5737 29.0053 13.5559 29.1394 13.5906 29.2676C13.66 29.5268 13.9375 29.6888 14.2 29.6194C14.3284 29.5852 14.4357 29.5029 14.5021 29.3876C14.5684 29.2723 14.586 29.1382 14.5515 29.01C14.4934 28.7923 14.2958 28.6409 14.0715 28.6409ZM5.48329 13.6495C5.34712 13.6495 5.21212 13.5904 5.11977 13.477C4.95641 13.2761 4.98618 12.9813 5.18704 12.8177C5.31852 12.7106 8.46385 10.2011 13.5625 10.5573C13.8207 10.5756 14.0155 10.7995 13.9975 11.0577C13.9792 11.316 13.7561 11.5124 13.4971 11.4927C8.76525 11.1599 5.8086 13.5208 5.7793 13.5445C5.69188 13.6152 5.58735 13.6495 5.48329 13.6495ZM33.9421 13.7184C33.1326 13.7184 32.2996 13.6052 31.4669 13.382C29.9039 12.9632 28.5255 12.201 27.5859 11.2361C26.5849 10.2074 26.1881 9.06367 26.4693 8.01483C26.8741 6.50475 28.6549 5.52881 31.0061 5.52881C31.8161 5.52881 32.6486 5.64201 33.4814 5.86514C35.0444 6.28397 36.4228 7.04616 37.3622 8.01132C38.3632 9.03953 38.76 10.1837 38.4787 11.2326C38.0737 12.7427 36.2939 13.7184 33.9421 13.7184ZM31.0066 6.46678C29.0922 6.46678 27.6667 7.16991 27.3754 8.25741C27.1835 8.9746 27.4968 9.80008 28.2585 10.5824C29.0814 11.4281 30.3077 12.1009 31.7102 12.4766C32.4635 12.6784 33.2144 12.7809 33.9421 12.7809C35.8565 12.7809 37.282 12.0782 37.5733 10.9902C37.7653 10.273 37.4519 9.44757 36.6902 8.66523C35.8673 7.8196 34.6411 7.14671 33.2386 6.771C32.4853 6.56897 31.7343 6.46678 31.0066 6.46678Z" fill="white"/>
<path fill-rule="evenodd" clip-rule="evenodd" d="M25.8562 40.6197C25.6694 40.6197 25.4819 40.5948 25.2984 40.5454L23.2275 39.9906C22.0579 39.6768 21.3743 38.4749 21.6363 37.1947L25.9582 16.1011C24.285 14.539 23.5734 12.5696 24.0511 10.7881C24.3949 9.50391 25.3387 8.41735 26.7094 7.72852C26.79 7.68812 26.8805 7.67176 26.9701 7.68141C27.0598 7.69105 27.1448 7.72628 27.2149 7.78289C27.3579 7.89867 27.42 8.08782 27.3731 8.26594C26.9688 9.80978 28.9547 11.7378 31.71 12.476C32.4631 12.6778 33.2142 12.7805 33.942 12.7805C35.8498 12.7805 37.2741 12.0809 37.5704 10.9983C37.5941 10.9113 37.6424 10.833 37.7096 10.7729C37.7767 10.7127 37.8598 10.6732 37.9489 10.6592C38.1333 10.631 38.3129 10.7109 38.4141 10.8647C39.2565 12.1465 39.5309 13.5593 39.1866 14.8439C38.7092 16.6257 37.1079 17.9754 34.8781 18.4915L28.0741 38.9202C27.7359 39.9367 26.8446 40.6197 25.8562 40.6197ZM26.4007 9.00844C25.6638 9.54563 25.17 10.2338 24.9562 11.0311C24.5545 12.5306 25.2359 14.2317 26.7797 15.5806C26.907 15.6917 26.9641 15.8625 26.9306 16.0278L22.5551 37.3839C22.3936 38.1709 22.7871 38.9026 23.4705 39.0859L25.541 39.6407C26.2247 39.8223 26.9362 39.3716 27.1849 38.6242L34.0735 17.9417C34.1269 17.7816 34.2619 17.6628 34.4276 17.6297C36.439 17.2332 37.8797 16.1011 38.2817 14.6016C38.4959 13.8021 38.4113 12.9574 38.0393 12.1221C37.2877 13.1147 35.7903 13.7185 33.9424 13.7185H33.942C33.132 13.7185 32.2995 13.6053 31.4667 13.3821C28.6266 12.6213 26.6166 10.8195 26.4002 9.00844H26.4007Z" fill="white"/>
</g>
<g clip-path="url(#clip1_98_193)">
<path fill-rule="evenodd" clip-rule="evenodd" d="M28.3027 23.5992C29.7563 23.5992 31.0254 22.6666 31.4597 21.2782C31.4825 21.206 31.4872 21.1293 31.4738 21.0548C31.2275 19.6858 30.2004 18.5688 28.8575 18.2088C28.5511 18.1267 28.2366 18.0853 27.9223 18.0853C26.8601 18.0853 25.8563 18.5517 25.1689 19.3652C25.1199 19.4228 25.0859 19.4915 25.0693 19.5653C24.6802 21.3023 25.7232 23.0243 27.4435 23.4848C27.7247 23.5605 28.014 23.5992 28.3027 23.5992ZM30.5283 21.1073C30.1866 22.0418 29.3061 22.6612 28.3027 22.6612C28.096 22.6612 27.8886 22.6338 27.6863 22.5799C26.4903 22.2595 25.7511 21.0895 25.9615 19.8836C26.6243 19.1646 27.6575 18.8585 28.6149 19.1149C29.5711 19.3711 30.3113 20.1464 30.5283 21.1073ZM29.9201 15.6813C30.5682 15.6813 31.1379 15.2437 31.3058 14.6172C31.5106 13.8529 31.0552 13.0645 30.2907 12.8599C30.1688 12.8273 30.0439 12.8106 29.9187 12.8106C29.2707 12.8106 28.7009 13.2482 28.5331 13.8747C28.3287 14.639 28.7836 15.4274 29.5482 15.6323C29.6701 15.6649 29.7952 15.6813 29.9201 15.6813ZM29.9192 13.7479C29.9626 13.7479 30.0059 13.7538 30.0483 13.7652C30.3134 13.8363 30.4711 14.1095 30.4001 14.3746C30.3308 14.6338 30.0542 14.797 29.7908 14.7264C29.5257 14.6554 29.3679 14.3821 29.439 14.117C29.4973 13.8995 29.6947 13.7479 29.9192 13.7479ZM25.9296 30.5738C26.5777 30.5738 27.1475 30.1362 27.3155 29.5099C27.4149 29.1394 27.3638 28.7529 27.1718 28.4208C26.9801 28.0884 26.6705 27.8512 26.3004 27.7521C26.1786 27.7193 26.0536 27.7029 25.9285 27.7029C25.2807 27.7029 24.7111 28.1405 24.5431 28.7667C24.4437 29.1373 24.4948 29.524 24.6868 29.8559C24.8785 30.1882 25.1881 30.4256 25.5582 30.5245C25.68 30.5571 25.8047 30.5738 25.9296 30.5738ZM25.9285 28.6409C25.9718 28.6409 26.0152 28.6467 26.0576 28.6582C26.1861 28.6924 26.2934 28.7747 26.36 28.89C26.4263 29.0053 26.4441 29.1394 26.4094 29.2676C26.34 29.5268 26.0625 29.6888 25.8 29.6194C25.6716 29.5852 25.5643 29.5029 25.4979 29.3876C25.4316 29.2723 25.414 29.1382 25.4485 29.01C25.5066 28.7923 25.7042 28.6409 25.9285 28.6409ZM34.5167 13.6495C34.6529 13.6495 34.7879 13.5904 34.8802 13.477C35.0436 13.2761 35.0138 12.9813 34.813 12.8177C34.6815 12.7106 31.5362 10.2011 26.4375 10.5573C26.1793 10.5756 25.9845 10.7995 26.0025 11.0577C26.0208 11.316 26.2439 11.5124 26.5029 11.4927C31.2347 11.1599 34.1914 13.5208 34.2207 13.5445C34.3081 13.6152 34.4126 13.6495 34.5167 13.6495ZM6.05785 13.7184C6.86739 13.7184 7.70036 13.6052 8.53309 13.382C10.0961 12.9632 11.4745 12.201 12.4141 11.2361C13.4151 10.2074 13.8119 9.06367 13.5307 8.01483C13.1259 6.50475 11.3451 5.52881 8.99388 5.52881C8.18387 5.52881 7.35137 5.64201 6.51863 5.86514C4.95558 6.28397 3.57722 7.04616 2.63784 8.01132C1.63682 9.03953 1.24002 10.1837 1.52127 11.2326C1.92627 12.7427 3.70612 13.7184 6.05785 13.7184ZM8.99341 6.46678C10.9078 6.46678 12.3333 7.16991 12.6246 8.25741C12.8165 8.9746 12.5032 9.80008 11.7415 10.5824C10.9186 11.4281 9.69232 12.1009 8.28981 12.4766C7.53653 12.6784 6.78559 12.7809 6.05785 12.7809C4.14347 12.7809 2.71799 12.0782 2.42667 10.9902C2.23471 10.273 2.54807 9.44757 3.30979 8.66523C4.13269 7.8196 5.35894 7.14671 6.76145 6.771C7.51473 6.56897 8.26567 6.46678 8.99341 6.46678Z" fill="white"/>
<path fill-rule="evenodd" clip-rule="evenodd" d="M14.1438 40.6197C14.3306 40.6197 14.5181 40.5948 14.7016 40.5454L16.7725 39.9906C17.9421 39.6768 18.6257 38.4749 18.3637 37.1947L14.0418 16.1011C15.715 14.539 16.4266 12.5696 15.9489 10.7881C15.6051 9.50391 14.6613 8.41735 13.2906 7.72852C13.21 7.68812 13.1195 7.67176 13.0299 7.68141C12.9402 7.69105 12.8552 7.72628 12.7851 7.78289C12.6421 7.89867 12.58 8.08782 12.6269 8.26594C13.0312 9.80978 11.0453 11.7378 8.28998 12.476C7.53693 12.6778 6.78576 12.7805 6.05802 12.7805C4.1502 12.7805 2.7259 12.0809 2.42965 10.9983C2.40593 10.9113 2.35759 10.833 2.29044 10.7729C2.22329 10.7127 2.14019 10.6732 2.05113 10.6592C1.86667 10.631 1.68714 10.7109 1.58589 10.8647C0.743546 12.1465 0.469093 13.5593 0.813391 14.8439C1.29082 16.6257 2.89207 17.9754 5.12192 18.4915L11.9259 38.9202C12.2641 39.9367 13.1554 40.6197 14.1438 40.6197ZM13.5993 9.00844C14.3362 9.54563 14.83 10.2338 15.0438 11.0311C15.4455 12.5306 14.7641 14.2317 13.2203 15.5806C13.093 15.6917 13.0359 15.8625 13.0694 16.0278L17.4449 37.3839C17.6064 38.1709 17.2129 38.9026 16.5295 39.0859L14.459 39.6407C13.7753 39.8223 13.0638 39.3716 12.8151 38.6242L5.92653 17.9417C5.8731 17.7816 5.7381 17.6628 5.57239 17.6297C3.56098 17.2332 2.12027 16.1011 1.71832 14.6016C1.5041 13.8021 1.58871 12.9574 1.96066 12.1221C2.7123 13.1147 4.20973 13.7185 6.05755 13.7185H6.05802C6.86802 13.7185 7.70053 13.6053 8.53327 13.3821C11.3734 12.6213 13.3834 10.8195 13.5998 9.00844H13.5993Z" fill="white"/>
</g>
<defs>
<clipPath id="clip0_98_193">
<rect width="20" height="40" fill="white" transform="translate(20 0.620117)"/>
</clipPath>
<clipPath id="clip1_98_193">
<rect width="20" height="40" fill="white" transform="matrix(-1 0 0 1 20 0.620117)"/>
</clipPath>
</defs>
</svg>
