<svg width="41" height="41" viewBox="0 0 41 41" fill="none" xmlns="http://www.w3.org/2000/svg">
<path d="M33.7357 14.9603H32.441V14.7187C32.441 13.4262 31.3898 12.375 30.0973 12.375H24.1604V6.12402C24.1604 5.17621 23.3892 4.40527 22.4417 4.40527H18.4673C18.0116 4.40577 17.5747 4.58701 17.2525 4.90923C16.9303 5.23145 16.749 5.66833 16.7485 6.12402V12.375H10.8117C9.51916 12.375 8.46791 13.4262 8.46791 14.7187V14.9603H7.17322C4.15791 14.9603 1.70447 17.4137 1.70447 20.429V31.3665C1.70447 34.3818 4.15791 36.8353 7.17322 36.8353H33.7357C36.751 36.8353 39.2045 34.3818 39.2045 31.3665V20.429C39.2045 17.4137 36.751 14.9603 33.7357 14.9603ZM37.642 31.3665C37.642 33.5206 35.8898 35.2728 33.7357 35.2728H7.17322C5.01916 35.2728 3.26697 33.5206 3.26697 31.3665V20.429C3.26697 18.275 5.01916 16.5228 7.17322 16.5228H33.7357C35.8898 16.5228 37.642 18.275 37.642 20.429V31.3665ZM10.0304 14.7187C10.0304 14.2881 10.3807 13.9375 10.8117 13.9375H16.7485V14.9603H10.0304V14.7187ZM18.4673 5.96777H22.442C22.4834 5.96777 22.5232 5.98424 22.5525 6.01354C22.5818 6.04284 22.5982 6.08258 22.5982 6.12402V7.62059H18.311V6.12402C18.311 6.08258 18.3275 6.04284 18.3568 6.01354C18.3861 5.98424 18.4258 5.96777 18.4673 5.96777ZM22.5979 9.18309V14.9603H18.311V9.18309H22.5979ZM30.8785 14.7187V14.9603H24.1604V13.9375H30.0973C30.5282 13.9375 30.8785 14.2881 30.8785 14.7187Z" fill="white"/>
<path d="M33.7357 18.0864H31.392C31.1848 18.0864 30.9861 18.1687 30.8395 18.3152C30.693 18.4618 30.6107 18.6605 30.6107 18.8677C30.6107 19.0749 30.693 19.2736 30.8395 19.4201C30.9861 19.5666 31.1848 19.6489 31.392 19.6489H33.7357C34.1667 19.6489 34.517 19.9996 34.517 20.4302V22.7739C34.517 22.9811 34.5993 23.1798 34.7458 23.3264C34.8923 23.4729 35.091 23.5552 35.2982 23.5552C35.5054 23.5552 35.7041 23.4729 35.8506 23.3264C35.9972 23.1798 36.0795 22.9811 36.0795 22.7739V20.4302C36.0795 19.1377 35.0282 18.0864 33.7357 18.0864Z" fill="white"/>
</svg>
