<svg width="17" height="17" viewBox="0 0 17 17" fill="none" xmlns="http://www.w3.org/2000/svg">
<path d="M8.64531 4.19434C10.8602 4.19434 12.6883 6.02246 12.6883 8.2373C12.6883 10.4873 10.8602 12.2803 8.64531 12.2803C6.39531 12.2803 4.60234 10.4873 4.60234 8.2373C4.60234 6.02246 6.39531 4.19434 8.64531 4.19434ZM8.64531 10.874C10.0867 10.874 11.2469 9.71387 11.2469 8.2373C11.2469 6.7959 10.0867 5.63574 8.64531 5.63574C7.16875 5.63574 6.00859 6.7959 6.00859 8.2373C6.00859 9.71387 7.20391 10.874 8.64531 10.874ZM13.7781 4.05371C13.7781 4.58105 13.3562 5.00293 12.8289 5.00293C12.3016 5.00293 11.8797 4.58105 11.8797 4.05371C11.8797 3.52637 12.3016 3.10449 12.8289 3.10449C13.3562 3.10449 13.7781 3.52637 13.7781 4.05371ZM16.45 5.00293C16.5203 6.30371 16.5203 10.2061 16.45 11.5068C16.3797 12.7725 16.0984 13.8623 15.1844 14.8115C14.2703 15.7256 13.1453 16.0068 11.8797 16.0771C10.5789 16.1475 6.67656 16.1475 5.37578 16.0771C4.11016 16.0068 3.02031 15.7256 2.07109 14.8115C1.15703 13.8623 0.875781 12.7725 0.805469 11.5068C0.735156 10.2061 0.735156 6.30371 0.805469 5.00293C0.875781 3.7373 1.15703 2.6123 2.07109 1.69824C3.02031 0.78418 4.11016 0.50293 5.37578 0.432617C6.67656 0.362305 10.5789 0.362305 11.8797 0.432617C13.1453 0.50293 14.2703 0.78418 15.1844 1.69824C16.0984 2.6123 16.3797 3.7373 16.45 5.00293ZM14.7625 12.8779C15.1844 11.8584 15.0789 9.39746 15.0789 8.2373C15.0789 7.1123 15.1844 4.65137 14.7625 3.59668C14.4812 2.92871 13.9539 2.36621 13.2859 2.12012C12.2312 1.69824 9.77031 1.80371 8.64531 1.80371C7.48516 1.80371 5.02422 1.69824 4.00469 2.12012C3.30156 2.40137 2.77422 2.92871 2.49297 3.59668C2.07109 4.65137 2.17656 7.1123 2.17656 8.2373C2.17656 9.39746 2.07109 11.8584 2.49297 12.8779C2.77422 13.5811 3.30156 14.1084 4.00469 14.3896C5.02422 14.8115 7.48516 14.7061 8.64531 14.7061C9.77031 14.7061 12.2312 14.8115 13.2859 14.3896C13.9539 14.1084 14.5164 13.5811 14.7625 12.8779Z" fill="white"/>
</svg>
