<svg width="17" height="17" viewBox="0 0 17 17" fill="none" xmlns="http://www.w3.org/2000/svg">
<path d="M15.8113 9.78418C16.3387 10.4521 16.6551 11.2959 16.6199 12.1748C16.6199 14.3545 14.8621 16.1123 12.6824 16.1123C11.8035 16.1123 10.9598 15.8311 10.2918 15.3037C9.79961 15.4092 9.27227 15.4795 8.74492 15.4795C4.77227 15.4795 1.53789 12.2451 1.53789 8.2373C1.53789 7.74512 1.6082 7.21777 1.71367 6.72559C1.18633 6.05762 0.905078 5.21387 0.905078 4.2998C0.905078 2.15527 2.66289 0.362305 4.84258 0.362305C5.72148 0.362305 6.56523 0.678711 7.2332 1.20605C7.72539 1.10059 8.25273 1.03027 8.78008 1.03027C12.7527 1.03027 15.9871 4.26465 15.9871 8.2373C15.9871 8.76465 15.9168 9.29199 15.8113 9.78418ZM8.99102 13.0186C10.9246 13.0186 12.9285 12.0342 12.9285 9.95996C12.9285 8.16699 11.1707 7.56934 9.7293 7.25293C8.0418 6.83105 7.30352 6.76074 7.30352 6.09277C7.30352 5.53027 7.86602 5.28418 8.78008 5.28418C10.3973 5.28418 10.4324 6.47949 11.4168 6.47949C12.0848 6.47949 12.4715 5.95215 12.4715 5.35449C12.4715 4.15918 10.5027 3.38574 8.56914 3.38574C6.81133 3.38574 4.73711 4.15918 4.73711 6.26855C4.73711 8.55371 6.70586 8.76465 8.88555 9.32715C9.79961 9.53809 10.3621 9.64355 10.3621 10.3115C10.3621 10.8389 9.76445 11.2256 8.88555 11.2256C6.98711 11.2256 6.88164 9.64355 5.7918 9.64355C5.05352 9.64355 4.73711 10.1709 4.73711 10.7334C4.73711 11.999 6.6707 13.0186 8.99102 13.0186Z" fill="white"/>
</svg>
