<svg width="25" height="24" viewBox="0 0 25 24" fill="none" xmlns="http://www.w3.org/2000/svg">
<g clip-path="url(#clip0_12_78)">
<path d="M24.4656 22.6943L18.2692 16.5969C19.8919 14.834 20.8889 12.5024 20.8889 9.93682C20.8881 4.44852 16.3675 0 10.7907 0C5.21391 0 0.693359 4.44852 0.693359 9.93682C0.693359 15.4251 5.21391 19.8736 10.7907 19.8736C13.2003 19.8736 15.4103 19.0402 17.1462 17.6546L23.3667 23.776C23.6698 24.0746 24.1618 24.0746 24.4649 23.776C24.537 23.7056 24.5943 23.6215 24.6335 23.5287C24.6726 23.4358 24.6928 23.3361 24.6929 23.2353C24.6929 23.1345 24.6729 23.0348 24.6338 22.9419C24.5948 22.849 24.5376 22.7648 24.4656 22.6943ZM10.7907 18.3448C6.07213 18.3448 2.24698 14.5804 2.24698 9.93682C2.24698 5.29321 6.07213 1.52884 10.7907 1.52884C15.5094 1.52884 19.3345 5.29321 19.3345 9.93682C19.3345 14.5804 15.5094 18.3448 10.7907 18.3448Z" fill="white"/>
</g>
<defs>
<clipPath id="clip0_12_78">
<rect width="24" height="24" fill="white" transform="translate(0.693115)"/>
</clipPath>
</defs>
</svg>
