<svg width="18" height="16" viewBox="0 0 18 16" fill="none" xmlns="http://www.w3.org/2000/svg">
<path d="M16.1375 4.58105C16.1375 4.75684 16.1375 4.89746 16.1375 5.07324C16.1375 9.95996 12.4461 15.5498 5.66094 15.5498C3.55156 15.5498 1.61797 14.9521 0.000782013 13.8975C0.282032 13.9326 0.563282 13.9678 0.879688 13.9678C2.60234 13.9678 4.18438 13.3701 5.45 12.3857C3.83281 12.3506 2.46172 11.2959 2.00469 9.81934C2.25078 9.85449 2.46172 9.88965 2.70781 9.88965C3.02422 9.88965 3.37578 9.81934 3.65703 9.74902C1.96953 9.39746 0.703907 7.9209 0.703907 6.12793V6.09277C1.19609 6.37402 1.79375 6.51465 2.39141 6.5498C1.37188 5.88184 0.739063 4.75684 0.739063 3.49121C0.739063 2.78809 0.914845 2.15527 1.23125 1.62793C3.05938 3.84277 5.80156 5.31934 8.86016 5.49512C8.78984 5.21387 8.75469 4.93262 8.75469 4.65137C8.75469 2.6123 10.407 0.959961 12.4461 0.959961C13.5008 0.959961 14.45 1.38184 15.1531 2.12012C15.9617 1.94434 16.7703 1.62793 17.4734 1.20605C17.1922 2.08496 16.6297 2.78809 15.8563 3.24512C16.5945 3.1748 17.3328 2.96387 17.9656 2.68262C17.4734 3.4209 16.8406 4.05371 16.1375 4.58105Z" fill="white"/>
</svg>
