<svg width="100" height="101" viewBox="0 0 100 101" fill="none" xmlns="http://www.w3.org/2000/svg">
<g clip-path="url(#clip0_69_136)">
<path d="M18.3406 60.4082C18.011 60.4082 17.6889 60.3104 17.4149 60.1272C17.1408 59.9441 16.9273 59.6838 16.8012 59.3793C16.675 59.0748 16.642 58.7398 16.7063 58.4165C16.7706 58.0933 16.9293 57.7963 17.1623 57.5632L18.829 55.8966C19.1433 55.593 19.5643 55.425 20.0013 55.4288C20.4383 55.4326 20.8563 55.6079 21.1653 55.9169C21.4743 56.2259 21.6496 56.6439 21.6534 57.0809C21.6572 57.5179 21.4892 57.9389 21.1856 58.2532L19.519 59.9199C19.2065 60.2325 18.7826 60.4081 18.3406 60.4082ZM18.3406 68.7416C18.011 68.7415 17.6889 68.6437 17.4149 68.4606C17.1408 68.2774 16.9273 68.0172 16.8012 67.7127C16.675 67.4082 16.642 67.0731 16.7063 66.7498C16.7706 66.4266 16.9293 66.1297 17.1623 65.8966L27.1623 55.8966C27.4766 55.593 27.8976 55.425 28.3346 55.4288C28.7716 55.4326 29.1896 55.6079 29.4987 55.9169C29.8077 56.2259 29.983 56.6439 29.9868 57.0809C29.9906 57.5179 29.8226 57.9389 29.519 58.2532L19.519 68.2532C19.2065 68.5658 18.7826 68.7415 18.3406 68.7416Z" fill="white"/>
<path d="M5.00732 75.4082H8.34066V82.0749C8.3433 84.2842 9.22213 86.4023 10.7844 87.9645C12.3466 89.5267 14.4647 90.4056 16.674 90.4082H36.2323C37.6704 90.4044 39.0833 90.0303 40.3348 89.3218C41.5862 88.6133 42.6341 87.5944 43.3773 86.3632L44.494 84.5032C44.94 83.7642 45.5689 83.1526 46.32 82.7272C47.0711 82.3019 47.9192 82.0772 48.7823 82.0749H51.2323C52.0955 82.0772 52.9435 82.3019 53.6946 82.7272C54.4457 83.1526 55.0746 83.7642 55.5207 84.5032L56.6373 86.3632C57.3806 87.5944 58.4284 88.6133 59.6799 89.3218C60.9314 90.0303 62.3442 90.4044 63.7823 90.4082H83.3407C85.55 90.4056 87.6681 89.5267 89.2303 87.9645C90.7925 86.4023 91.6713 84.2842 91.674 82.0749V75.4082H95.0073C96.3334 75.4082 97.6052 74.8814 98.5429 73.9437C99.4805 73.0061 100.007 71.7343 100.007 70.4082V57.0749C100.007 55.7488 99.4805 54.477 98.5429 53.5393C97.6052 52.6017 96.3334 52.0749 95.0073 52.0749H91.674C91.6705 48.9818 90.4402 46.0164 88.253 43.8292C86.0658 41.642 83.1004 40.4117 80.0073 40.4082H78.3407V38.7415C78.3407 36.9734 77.6383 35.2777 76.388 34.0275C75.1378 32.7773 73.4421 32.0749 71.674 32.0749H63.3407V17.0749C63.3407 15.3068 62.6383 13.6111 61.388 12.3608C60.1378 11.1106 58.4421 10.4082 56.674 10.4082H43.3407C41.5725 10.4082 39.8769 11.1106 38.6266 12.3608C37.3764 13.6111 36.674 15.3068 36.674 17.0749V32.0749H28.3407C26.5725 32.0749 24.8769 32.7773 23.6266 34.0275C22.3764 35.2777 21.674 36.9734 21.674 38.7415V40.4082H20.0073C16.9142 40.4117 13.9488 41.642 11.7616 43.8292C9.57448 46.0164 8.34419 48.9818 8.34066 52.0749H5.00732C3.68124 52.0749 2.40947 52.6017 1.47179 53.5393C0.534108 54.477 0.00732422 55.7488 0.00732422 57.0749L0.00732422 70.4082C0.00732422 71.7343 0.534108 73.0061 1.47179 73.9437C2.40947 74.8814 3.68124 75.4082 5.00732 75.4082ZM88.3407 82.0749C88.3407 83.401 87.8139 84.6727 86.8762 85.6104C85.9385 86.5481 84.6667 87.0749 83.3407 87.0749H63.7823C62.9191 87.0725 62.0711 86.8478 61.32 86.4225C60.5689 85.9972 59.94 85.3855 59.494 84.6465L58.3773 82.7865C57.6341 81.5554 56.5862 80.5365 55.3348 79.828C54.0833 79.1195 52.6704 78.7453 51.2323 78.7415H48.7823C47.3442 78.7453 45.9314 79.1195 44.6799 79.828C43.4284 80.5365 42.3806 81.5554 41.6373 82.7865L40.5207 84.6465C40.0746 85.3855 39.4457 85.9972 38.6946 86.4225C37.9435 86.8478 37.0955 87.0725 36.2323 87.0749H16.674C15.3479 87.0749 14.0761 86.5481 13.1385 85.6104C12.2008 84.6727 11.674 83.401 11.674 82.0749V58.7415C11.6766 56.5322 12.5555 54.4141 14.1177 52.8519C15.6799 51.2897 17.798 50.4109 20.0073 50.4082H80.0073C82.2166 50.4109 84.3347 51.2897 85.897 52.8519C87.4592 54.4141 88.338 56.5322 88.3407 58.7415V82.0749ZM95.0073 55.4082C95.4493 55.4082 95.8733 55.5838 96.1858 55.8964C96.4984 56.2089 96.674 56.6328 96.674 57.0749V70.4082C96.674 70.8502 96.4984 71.2742 96.1858 71.5867C95.8733 71.8993 95.4493 72.0749 95.0073 72.0749H91.674V55.4082H95.0073ZM43.3407 13.7415H56.674C57.558 13.7415 58.4059 14.0927 59.031 14.7178C59.6561 15.343 60.0073 16.1908 60.0073 17.0749V25.4082H40.0073V17.0749C40.0073 16.1908 40.3585 15.343 40.9836 14.7178C41.6088 14.0927 42.4566 13.7415 43.3407 13.7415ZM40.0073 28.7415H60.0073V32.0749H40.0073V28.7415ZM25.0073 38.7415C25.0073 37.8575 25.3585 37.0096 25.9836 36.3845C26.6088 35.7594 27.4566 35.4082 28.3407 35.4082H71.674C72.558 35.4082 73.4059 35.7594 74.031 36.3845C74.6561 37.0096 75.0073 37.8575 75.0073 38.7415V40.4082H25.0073V38.7415ZM20.0073 43.7415H80.0073C81.9298 43.7444 83.7925 44.4108 85.2804 45.6282C86.7684 46.8456 87.7905 48.5393 88.174 50.4232C85.9979 48.2767 83.0639 47.0738 80.0073 47.0749H20.0073C16.9507 47.0738 14.0167 48.2767 11.8407 50.4232C12.2242 48.5393 13.2463 46.8456 14.7342 45.6282C16.2222 44.4108 18.0848 43.7444 20.0073 43.7415ZM3.34066 57.0749C3.34066 56.6328 3.51625 56.2089 3.82881 55.8964C4.14137 55.5838 4.5653 55.4082 5.00732 55.4082H8.34066V72.0749H5.00732C4.5653 72.0749 4.14137 71.8993 3.82881 71.5867C3.51625 71.2742 3.34066 70.8502 3.34066 70.4082V57.0749Z" fill="white"/>
</g>
<defs>
<clipPath id="clip0_69_136">
<rect width="100" height="100" fill="white" transform="translate(0.00732422 0.408203)"/>
</clipPath>
</defs>
</svg>
