<svg width="100" height="101" viewBox="0 0 100 101" fill="none" xmlns="http://www.w3.org/2000/svg">
<g clip-path="url(#clip0_69_140)">
<path d="M57.9573 28.7375H91.4845C92.7911 28.7375 93.8544 27.6744 93.8544 26.3674V14.098C93.8544 13.2889 93.1985 12.6332 92.3895 12.6332C91.5806 12.6332 90.9247 13.2889 90.9247 14.098V23.5592L85.8034 15.4883C85.4251 14.892 84.7778 14.5361 84.0716 14.5361C83.3653 14.5361 82.7181 14.892 82.3399 15.4881L79.0606 20.6562L71.4417 8.64863C71.0634 8.05234 70.4161 7.69629 69.7099 7.69629C69.0036 7.69629 68.3563 8.05234 67.9782 8.64844L58.5169 23.5592V3.22559H90.9245V7.13184C90.9245 7.94102 91.5804 8.59668 92.3894 8.59668C93.1983 8.59668 93.8542 7.94102 93.8542 7.13184V2.66582C93.8542 1.35918 92.7911 0.295898 91.4843 0.295898H57.9573C56.6505 0.295898 55.5874 1.35898 55.5874 2.66582V26.3676C55.5874 27.6744 56.6505 28.7375 57.9573 28.7375ZM69.7101 11.3877L77.3292 23.3953C77.5136 23.6876 77.7692 23.9283 78.072 24.0948C78.3749 24.2613 78.715 24.3482 79.0606 24.3473H79.0608C79.4065 24.3482 79.7467 24.2613 80.0495 24.0948C80.3524 23.9283 80.6081 23.6876 80.7925 23.3953L84.0718 18.2271L88.8819 25.8078H60.5601L69.7101 11.3877Z" fill="white"/>
<path d="M77.2216 8.77988C77.2216 11.1559 79.1546 13.0891 81.5308 13.0891C83.907 13.0891 85.8398 11.1559 85.8398 8.77988C85.8398 6.40391 83.9068 4.4707 81.5306 4.4707C79.1544 4.4707 77.2216 6.40371 77.2216 8.77988ZM82.9101 8.77988C82.9101 9.54063 82.2914 10.1594 81.5306 10.1594C80.7699 10.1594 80.1511 9.54063 80.1511 8.77988C80.1511 8.01914 80.7699 7.40039 81.5306 7.40039C82.2914 7.40039 82.9101 8.01914 82.9101 8.77988ZM90.4167 47.0945H89.2857C86.4363 42.7398 81.5189 39.8551 75.9376 39.8551H75.7222C74.6496 35.5283 70.6986 32.3258 66.1207 32.3258H34.788C30.2103 32.3258 26.2591 35.5281 25.1865 39.8551H24.971C19.3898 39.8551 14.4724 42.74 11.623 47.0945H10.4919C5.69233 47.0945 1.78765 50.9992 1.78765 55.7988V66.2238C1.78765 71.0234 5.69233 74.9281 10.4919 74.9281H11.6193C11.9959 75.5039 12.4092 76.0549 12.8566 76.5775H3.39722C2.00854 76.5775 0.878662 77.7072 0.878662 79.0961V97.7771C0.878662 99.1658 2.00854 100.296 3.39722 100.296H27.907C29.2957 100.296 30.4255 99.166 30.4255 97.7771V91.9623C30.4255 91.1531 29.7697 90.4975 28.9607 90.4975C28.1517 90.4975 27.4959 91.1531 27.4959 91.9623V97.3662H3.80835V79.5074H27.4957V85.1266C27.4957 85.9357 28.1515 86.5914 28.9605 86.5914C29.7695 86.5914 30.4253 85.9357 30.4253 85.1266V82.168H37.2462C40.346 82.168 43.2345 80.5004 44.7845 77.8158L47.9611 72.3139C48.4816 71.4125 49.4136 70.8744 50.4544 70.8744C51.4953 70.8744 52.4273 71.4125 52.9476 72.3139L56.1242 77.8158C57.6742 80.5004 60.5626 82.168 63.6625 82.168H75.9376C81.5189 82.168 86.4363 79.283 89.2857 74.9285H90.4167C95.2164 74.9285 99.1212 71.0238 99.1212 66.2242V55.7992C99.1212 50.9994 95.2164 47.0945 90.4167 47.0945ZM10.1042 71.9844C7.10015 71.7844 4.71714 69.2779 4.71714 66.2238V55.7988C4.71714 52.7436 7.10229 50.2363 10.1083 50.0381C9.39305 51.8744 9.02637 53.8281 9.0271 55.7988V66.2238C9.02519 68.1942 9.39048 70.1478 10.1042 71.9844ZM88.9519 66.224C88.9519 73.4 83.1136 79.2383 75.9376 79.2383H63.6625C61.606 79.2383 59.6896 78.1318 58.6615 76.351L55.4849 70.849C54.4351 69.0303 52.5546 67.9447 50.4546 67.9447C48.3548 67.9447 46.4742 69.0307 45.4242 70.849L42.2476 76.351C41.2193 78.1318 39.3031 79.2383 37.2466 79.2383H30.4257V79.0963C30.4257 77.7076 29.2959 76.5777 27.9072 76.5777H17.1019C13.9781 74.199 11.9568 70.4443 11.9568 66.2238V55.7988C11.9568 48.6228 17.7951 42.7846 24.971 42.7846H57.3566C58.1656 42.7846 58.8214 42.1289 58.8214 41.3197C58.8214 40.5105 58.1656 39.8549 57.3566 39.8549H28.2433C29.2222 37.1705 31.8177 35.2553 34.788 35.2553H66.1207C69.091 35.2553 71.6865 37.1705 72.6654 39.8549H64.1925C63.3835 39.8549 62.7277 40.5105 62.7277 41.3197C62.7277 42.1289 63.3835 42.7846 64.1925 42.7846H75.9374C83.1136 42.7846 88.9517 48.6228 88.9517 55.7988L88.9519 66.224ZM96.1916 66.224C96.1916 69.2793 93.8064 71.7867 90.8003 71.9848C91.5156 70.1484 91.8823 68.1948 91.8816 66.224V55.799C91.8823 53.8283 91.5156 51.8746 90.8003 50.0383C93.8064 50.2363 96.1916 52.7436 96.1916 55.799V66.224Z" fill="white"/>
<path d="M18.3104 54.0446C17.9219 54.0446 17.5494 54.199 17.2746 54.4737C16.9999 54.7484 16.8456 55.121 16.8456 55.5095V66.5136C16.8456 67.3228 17.5015 67.9784 18.3104 67.9784C19.1194 67.9784 19.7753 67.3228 19.7753 66.5136V55.5095C19.7753 55.121 19.621 54.7484 19.3462 54.4737C19.0715 54.199 18.6989 54.0446 18.3104 54.0446ZM82.5979 54.0446C82.2094 54.0446 81.8369 54.199 81.5621 54.4737C81.2874 54.7484 81.1331 55.121 81.1331 55.5095V66.5136C81.1331 67.3228 81.789 67.9784 82.5979 67.9784C83.4069 67.9784 84.0628 67.3228 84.0628 66.5136V55.5095C84.0628 55.121 83.9085 54.7484 83.6337 54.4737C83.359 54.199 82.9865 54.0446 82.5979 54.0446ZM12.8261 82.0054C12.4859 81.8096 12.1003 81.7065 11.7078 81.7066C11.3153 81.7066 10.9297 81.8097 10.5896 82.0056C10.25 82.2023 9.96795 82.4848 9.7717 82.8247C9.57545 83.1646 9.47183 83.55 9.47119 83.9425V92.9315C9.47119 93.728 9.89971 94.4704 10.5897 94.8687C10.9298 95.0647 11.3156 95.1676 11.7081 95.1671C12.0948 95.1671 12.4815 95.0675 12.8265 94.8685L20.6112 90.3739C20.9508 90.177 21.2329 89.8945 21.4291 89.5545C21.6253 89.2145 21.729 88.829 21.7296 88.4364C21.7296 87.6401 21.3009 86.8979 20.6112 86.4999L12.8261 82.0054ZM12.4011 91.731V85.1427L18.1067 88.4368L12.4011 91.731ZM44.7647 14.6048H50.2435C51.3997 14.6048 52.3405 13.6642 52.3405 12.5079V7.029C52.3405 5.87275 51.3999 4.93213 50.2435 4.93213H44.7647C43.6085 4.93213 42.6677 5.87275 42.6677 7.029V12.5079C42.6677 13.664 43.6085 14.6048 44.7647 14.6048ZM45.5974 7.86162H49.4108V11.6749H45.5974V7.86162ZM87.7626 33.58V39.0589C87.7626 40.2151 88.7032 41.1558 89.8597 41.1558H95.3384C96.4946 41.1558 97.4354 40.2151 97.4354 39.0589V33.58C97.4354 32.4237 96.4948 31.4831 95.3384 31.4831H89.8597C88.7032 31.4831 87.7626 32.4237 87.7626 33.58ZM90.6923 34.4128H94.5058V38.2261H90.6923V34.4128ZM40.445 85.1122H34.9661C33.8099 85.1122 32.8692 86.0528 32.8692 87.2091V92.688C32.8692 93.8442 33.8099 94.7849 34.9661 94.7849H40.445C41.6013 94.7849 42.5421 93.8442 42.5421 92.688V87.2091C42.5419 86.0528 41.6013 85.1122 40.445 85.1122ZM39.6122 91.8552H35.7987V88.0419H39.6122V91.8552Z" fill="white"/>
<path d="M24.6969 49.7616C25.3141 49.1444 25.3141 48.1437 24.6969 47.5265C24.0797 46.9093 23.079 46.9093 22.4618 47.5265C21.8446 48.1437 21.8446 49.1444 22.4618 49.7616C23.079 50.3788 24.0797 50.3788 24.6969 49.7616Z" fill="white"/>
<path d="M29.7538 49.7621C30.371 49.1449 30.371 48.1442 29.7538 47.527C29.1366 46.9098 28.1359 46.9098 27.5187 47.527C26.9015 48.1442 26.9015 49.1449 27.5187 49.7621C28.1359 50.3793 29.1366 50.3793 29.7538 49.7621Z" fill="white"/>
</g>
<defs>
<clipPath id="clip0_69_140">
<rect width="100" height="100" fill="white" transform="translate(0 0.295898)"/>
</clipPath>
</defs>
</svg>
